<svg width="275" height="28" viewBox="0 0 275 28" fill="none" xmlns="http://www.w3.org/2000/svg">
<path d="M8.964 27.432L0.684 12.096H4.644L10.26 23.94L8.208 23.868L13.356 12.096H17.1L9.144 27.432H8.964ZM26.7531 27.432L18.4731 12.096H22.4331L28.0491 23.94L25.9971 23.868L31.1451 12.096H34.8891L26.9331 27.432H26.7531ZM36.8466 19.404C36.8466 17.916 37.1946 16.572 37.8906 15.372C38.6106 14.172 39.5946 13.224 40.8426 12.528C42.0906 11.832 43.5066 11.484 45.0906 11.484C46.7226 11.484 48.1506 11.832 49.3746 12.528C50.5986 13.224 51.5466 14.172 52.2186 15.372C52.8906 16.572 53.2266 17.916 53.2266 19.404C53.2266 20.892 52.8906 22.248 52.2186 23.472C51.5466 24.672 50.5866 25.62 49.3386 26.316C48.1146 27.012 46.6866 27.36 45.0546 27.36C43.4706 27.36 42.0546 27.036 40.8066 26.388C39.5826 25.716 38.6106 24.792 37.8906 23.616C37.1946 22.416 36.8466 21.012 36.8466 19.404ZM40.1946 19.44C40.1946 20.4 40.4106 21.276 40.8426 22.068C41.2746 22.836 41.8506 23.448 42.5706 23.904C43.3146 24.36 44.1306 24.588 45.0186 24.588C45.9546 24.588 46.7826 24.36 47.5026 23.904C48.2466 23.448 48.8226 22.836 49.2306 22.068C49.6386 21.276 49.8426 20.4 49.8426 19.44C49.8426 18.48 49.6386 17.616 49.2306 16.848C48.8226 16.056 48.2466 15.432 47.5026 14.976C46.7826 14.496 45.9546 14.256 45.0186 14.256C44.1066 14.256 43.2786 14.496 42.5346 14.976C41.8146 15.456 41.2386 16.092 40.8066 16.884C40.3986 17.652 40.1946 18.504 40.1946 19.44ZM60.7478 12.096L61.0718 16.416L60.8918 15.84C61.2758 14.928 61.8278 14.16 62.5478 13.536C63.2918 12.888 64.0598 12.396 64.8518 12.06C65.6678 11.7 66.3758 11.52 66.9758 11.52L66.7958 14.832C65.6678 14.76 64.6718 14.976 63.8078 15.48C62.9678 15.984 62.2958 16.656 61.7918 17.496C61.3118 18.336 61.0718 19.236 61.0718 20.196V27H57.7598V12.096H60.7478ZM69.3661 19.404C69.3661 17.916 69.7141 16.572 70.4101 15.372C71.1301 14.172 72.1141 13.224 73.3621 12.528C74.6101 11.832 76.0261 11.484 77.6101 11.484C79.2421 11.484 80.6701 11.832 81.8941 12.528C83.1181 13.224 84.0661 14.172 84.7381 15.372C85.4101 16.572 85.7461 17.916 85.7461 19.404C85.7461 20.892 85.4101 22.248 84.7381 23.472C84.0661 24.672 83.1061 25.62 81.8581 26.316C80.6341 27.012 79.2061 27.36 77.5741 27.36C75.9901 27.36 74.5741 27.036 73.3261 26.388C72.1021 25.716 71.1301 24.792 70.4101 23.616C69.7141 22.416 69.3661 21.012 69.3661 19.404ZM72.7141 19.44C72.7141 20.4 72.9301 21.276 73.3621 22.068C73.7941 22.836 74.3701 23.448 75.0901 23.904C75.8341 24.36 76.6501 24.588 77.5381 24.588C78.4741 24.588 79.3021 24.36 80.0221 23.904C80.7661 23.448 81.3421 22.836 81.7501 22.068C82.1581 21.276 82.3621 20.4 82.3621 19.44C82.3621 18.48 82.1581 17.616 81.7501 16.848C81.3421 16.056 80.7661 15.432 80.0221 14.976C79.3021 14.496 78.4741 14.256 77.5381 14.256C76.6261 14.256 75.7981 14.496 75.0541 14.976C74.3341 15.456 73.7581 16.092 73.3261 16.884C72.9181 17.652 72.7141 18.504 72.7141 19.44ZM93.2673 12.096L93.5553 15.732L93.4113 15.156C93.8913 14.052 94.6713 13.176 95.7513 12.528C96.8313 11.856 98.0793 11.52 99.4953 11.52C100.911 11.52 102.063 11.94 102.951 12.78C103.863 13.596 104.331 14.664 104.355 15.984V27H100.971V17.172C100.947 16.356 100.707 15.696 100.251 15.192C99.8193 14.664 99.1353 14.4 98.1993 14.4C97.3353 14.4 96.5553 14.64 95.8593 15.12C95.1633 15.6 94.6113 16.26 94.2033 17.1C93.8193 17.94 93.6273 18.912 93.6273 20.016V27H90.2793V12.096H93.2673ZM116.37 27.36C114.978 27.36 113.706 27.06 112.554 26.46C111.426 25.86 110.526 24.984 109.854 23.832C109.206 22.656 108.882 21.228 108.882 19.548C108.882 17.892 109.23 16.464 109.926 15.264C110.622 14.04 111.546 13.104 112.698 12.456C113.874 11.808 115.158 11.484 116.55 11.484C117.942 11.484 119.118 11.808 120.078 12.456C121.038 13.08 121.77 13.824 122.274 14.688L122.058 15.264L122.382 12.096H125.478V27H122.13V23.112L122.49 23.976C122.394 24.216 122.178 24.528 121.842 24.912C121.53 25.272 121.098 25.644 120.546 26.028C120.018 26.412 119.406 26.736 118.71 27C118.014 27.24 117.234 27.36 116.37 27.36ZM117.27 24.588C118.11 24.588 118.866 24.432 119.538 24.12C120.21 23.808 120.762 23.376 121.194 22.824C121.65 22.248 121.962 21.564 122.13 20.772V17.856C121.938 17.136 121.602 16.512 121.122 15.984C120.642 15.432 120.066 15.012 119.394 14.724C118.722 14.412 117.978 14.256 117.162 14.256C116.274 14.256 115.458 14.472 114.714 14.904C113.97 15.336 113.37 15.936 112.914 16.704C112.482 17.472 112.266 18.372 112.266 19.404C112.266 20.364 112.494 21.24 112.95 22.032C113.406 22.824 114.018 23.448 114.786 23.904C115.554 24.36 116.382 24.588 117.27 24.588ZM129.975 19.404C129.975 17.916 130.323 16.572 131.019 15.372C131.739 14.172 132.723 13.224 133.971 12.528C135.219 11.832 136.635 11.484 138.219 11.484C139.851 11.484 141.279 11.832 142.503 12.528C143.727 13.224 144.675 14.172 145.347 15.372C146.019 16.572 146.355 17.916 146.355 19.404C146.355 20.892 146.019 22.248 145.347 23.472C144.675 24.672 143.715 25.62 142.467 26.316C141.243 27.012 139.815 27.36 138.183 27.36C136.599 27.36 135.183 27.036 133.935 26.388C132.711 25.716 131.739 24.792 131.019 23.616C130.323 22.416 129.975 21.012 129.975 19.404ZM133.323 19.44C133.323 20.4 133.539 21.276 133.971 22.068C134.403 22.836 134.979 23.448 135.699 23.904C136.443 24.36 137.259 24.588 138.147 24.588C139.083 24.588 139.911 24.36 140.631 23.904C141.375 23.448 141.951 22.836 142.359 22.068C142.767 21.276 142.971 20.4 142.971 19.44C142.971 18.48 142.767 17.616 142.359 16.848C141.951 16.056 141.375 15.432 140.631 14.976C139.911 14.496 139.083 14.256 138.147 14.256C137.235 14.256 136.407 14.496 135.663 14.976C134.943 15.456 134.367 16.092 133.935 16.884C133.527 17.652 133.323 18.504 133.323 19.44ZM170.833 25.056C170.401 25.344 169.813 25.668 169.069 26.028C168.325 26.388 167.449 26.688 166.441 26.928C165.457 27.168 164.377 27.288 163.201 27.288C161.185 27.264 159.361 26.904 157.729 26.208C156.121 25.512 154.753 24.564 153.625 23.364C152.497 22.164 151.621 20.784 150.997 19.224C150.397 17.64 150.097 15.96 150.097 14.184C150.097 12.24 150.409 10.452 151.033 8.82C151.681 7.164 152.581 5.736 153.733 4.536C154.885 3.312 156.241 2.364 157.801 1.692C159.385 1.02 161.113 0.684 162.985 0.684C164.545 0.684 165.961 0.899999 167.233 1.332C168.505 1.74 169.597 2.232 170.509 2.808L169.105 6.048C168.385 5.568 167.509 5.112 166.477 4.68C165.469 4.248 164.341 4.032 163.093 4.032C161.821 4.032 160.621 4.284 159.493 4.788C158.365 5.292 157.369 6 156.505 6.912C155.641 7.824 154.957 8.892 154.453 10.116C153.973 11.316 153.733 12.612 153.733 14.004C153.733 15.42 153.949 16.74 154.381 17.964C154.837 19.164 155.473 20.208 156.289 21.096C157.129 21.984 158.137 22.68 159.313 23.184C160.489 23.688 161.809 23.94 163.273 23.94C164.593 23.94 165.769 23.736 166.801 23.328C167.833 22.92 168.685 22.464 169.357 21.96L170.833 25.056ZM176.713 0.971998H180.205V23.652H193.417V27H176.713V0.971998ZM196.995 14.004C196.995 12.204 197.331 10.512 198.003 8.928C198.699 7.32 199.659 5.904 200.883 4.68C202.107 3.432 203.511 2.46 205.095 1.764C206.703 1.044 208.431 0.684 210.279 0.684C212.103 0.684 213.807 1.044 215.391 1.764C216.999 2.46 218.415 3.432 219.639 4.68C220.887 5.904 221.859 7.32 222.555 8.928C223.251 10.512 223.599 12.204 223.599 14.004C223.599 15.852 223.251 17.58 222.555 19.188C221.859 20.796 220.887 22.212 219.639 23.436C218.415 24.636 216.999 25.584 215.391 26.28C213.807 26.952 212.103 27.288 210.279 27.288C208.431 27.288 206.703 26.952 205.095 26.28C203.511 25.608 202.107 24.672 200.883 23.472C199.659 22.272 198.699 20.868 198.003 19.26C197.331 17.652 196.995 15.9 196.995 14.004ZM200.595 14.04C200.595 15.408 200.847 16.692 201.351 17.892C201.855 19.068 202.551 20.112 203.439 21.024C204.327 21.936 205.359 22.656 206.535 23.184C207.711 23.688 208.983 23.94 210.351 23.94C211.695 23.94 212.955 23.688 214.131 23.184C215.307 22.656 216.327 21.936 217.191 21.024C218.055 20.112 218.739 19.068 219.243 17.892C219.747 16.692 219.999 15.396 219.999 14.004C219.999 12.636 219.747 11.352 219.243 10.152C218.739 8.928 218.043 7.86 217.155 6.948C216.267 6.036 215.235 5.328 214.059 4.824C212.883 4.296 211.623 4.032 210.279 4.032C208.911 4.032 207.639 4.296 206.463 4.824C205.287 5.352 204.255 6.072 203.367 6.984C202.479 7.896 201.795 8.964 201.315 10.188C200.835 11.388 200.595 12.672 200.595 14.04ZM248.598 25.056C248.166 25.344 247.578 25.668 246.834 26.028C246.09 26.388 245.214 26.688 244.206 26.928C243.222 27.168 242.142 27.288 240.966 27.288C238.95 27.264 237.126 26.904 235.494 26.208C233.886 25.512 232.518 24.564 231.39 23.364C230.262 22.164 229.386 20.784 228.762 19.224C228.162 17.64 227.862 15.96 227.862 14.184C227.862 12.24 228.174 10.452 228.798 8.82C229.446 7.164 230.346 5.736 231.498 4.536C232.65 3.312 234.006 2.364 235.566 1.692C237.15 1.02 238.878 0.684 240.75 0.684C242.31 0.684 243.726 0.899999 244.998 1.332C246.27 1.74 247.362 2.232 248.274 2.808L246.87 6.048C246.15 5.568 245.274 5.112 244.242 4.68C243.234 4.248 242.106 4.032 240.858 4.032C239.586 4.032 238.386 4.284 237.258 4.788C236.13 5.292 235.134 6 234.27 6.912C233.406 7.824 232.722 8.892 232.218 10.116C231.738 11.316 231.498 12.612 231.498 14.004C231.498 15.42 231.714 16.74 232.146 17.964C232.602 19.164 233.238 20.208 234.054 21.096C234.894 21.984 235.902 22.68 237.078 23.184C238.254 23.688 239.574 23.94 241.038 23.94C242.358 23.94 243.534 23.736 244.566 23.328C245.598 22.92 246.45 22.464 247.122 21.96L248.598 25.056ZM258.006 11.448L257.898 12.744L258.366 12.096L269.022 0.971998H273.522L262.758 12.132L274.134 27H269.706L260.202 14.364L258.006 16.488V27H254.478V0.971998H258.006V11.448Z" fill="white"/>
</svg>
